<?xml version="1.0" encoding="UTF-8" standalone="no"?>
<!DOCTYPE svg PUBLIC "-//W3C//DTD SVG 20010904//EN"
              "http://www.w3.org/TR/2001/REC-SVG-20010904/DTD/svg10.dtd">

<svg xmlns="http://www.w3.org/2000/svg"
     width="9.82333in" height="1.74in"
     viewBox="0 0 2947 522">
  <path id="Sélection"
        fill="#004625" stroke="black" stroke-width="1"
        d="M 2810.00,178.00
           C 2808.18,184.37 2805.22,188.26 2802.26,194.00
             2802.26,194.00 2784.25,229.00 2784.25,229.00
             2780.46,236.53 2777.35,247.40 2770.96,252.61
             2755.33,265.35 2728.20,247.78 2728.18,229.00
             2728.16,217.71 2735.81,203.96 2740.75,194.00
             2740.75,194.00 2763.43,148.00 2763.43,148.00
             2763.43,148.00 2775.57,128.00 2775.57,128.00
             2777.29,124.97 2779.65,120.60 2779.05,117.00
             2777.66,108.71 2762.88,105.35 2756.00,103.28
             2756.00,103.28 2723.00,94.42 2723.00,94.42
             2711.74,91.92 2698.19,89.44 2690.53,79.96
             2679.23,65.98 2686.28,40.36 2704.00,41.78
             2712.32,42.45 2716.84,47.13 2724.00,49.93
             2724.00,49.93 2770.00,66.68 2770.00,66.68
             2770.00,66.68 2786.00,72.68 2786.00,72.68
             2787.96,73.38 2790.73,74.65 2792.78,73.77
             2797.00,71.96 2798.56,60.21 2799.25,56.00
             2799.25,56.00 2802.84,28.00 2802.84,28.00
             2803.32,23.50 2803.89,14.96 2805.40,11.00
             2808.04,4.08 2813.74,0.36 2821.00,0.04
             2839.40,-0.77 2849.88,13.95 2850.79,31.00
             2851.06,36.09 2848.82,44.90 2847.65,50.00
             2846.76,53.89 2845.14,63.21 2845.04,67.00
             2844.99,69.28 2844.98,72.58 2847.31,73.58
             2849.11,74.75 2852.14,73.85 2854.00,73.58
             2854.00,73.58 2871.00,67.34 2871.00,67.34
             2882.71,63.59 2899.78,59.51 2912.00,59.04
             2929.90,58.34 2947.99,69.36 2946.96,89.00
             2946.21,103.14 2931.77,104.87 2921.00,107.63
             2921.00,107.63 2905.00,112.28 2905.00,112.28
             2891.58,116.31 2865.73,122.40 2857.65,134.00
             2854.91,137.94 2853.82,144.25 2854.09,149.00
             2854.81,161.60 2862.75,196.11 2866.43,209.00
             2869.29,219.05 2875.05,233.45 2873.71,244.00
             2870.52,269.11 2838.73,271.72 2828.79,258.91
             2821.73,249.81 2822.07,234.07 2820.83,223.00
             2820.83,223.00 2815.88,202.00 2815.88,202.00
             2815.88,202.00 2810.00,178.00 2810.00,178.00 Z
           M 220.00,254.00
           C 220.00,254.00 220.00,158.00 220.00,158.00
             220.00,142.02 218.44,122.65 228.04,109.00
             245.92,83.60 294.28,84.43 314.82,106.09
             324.39,116.18 326.98,129.57 327.00,143.00
             327.00,143.00 327.00,465.00 327.00,465.00
             326.98,476.61 325.11,490.36 318.21,500.00
             301.98,522.68 263.66,526.13 241.00,511.45
             233.33,506.49 227.78,499.49 224.46,491.00
             222.36,485.63 222.98,483.43 220.00,478.00
             212.80,491.65 197.56,502.46 184.00,509.25
             160.70,520.90 145.23,521.29 120.00,521.00
             87.04,520.61 53.50,500.20 33.45,475.00
             12.82,449.07 0.05,408.08 0.00,375.00
             0.00,375.00 0.00,353.00 0.00,353.00
             0.15,340.91 4.01,319.64 7.66,308.00
             12.44,292.74 18.57,278.10 27.91,265.00
             48.59,236.02 80.50,217.56 116.00,214.04
             116.00,214.04 124.00,214.04 124.00,214.04
             124.00,214.04 131.00,213.18 131.00,213.18
             131.00,213.18 138.00,214.04 138.00,214.04
             138.00,214.04 146.00,214.04 146.00,214.04
             175.61,217.04 201.22,231.12 220.00,254.00 Z
           M 2168.00,221.00
           C 2168.00,175.20 2186.60,135.05 2228.00,112.31
             2242.48,104.35 2256.84,99.87 2273.00,96.80
             2273.00,96.80 2291.00,94.58 2291.00,94.58
             2316.50,91.20 2360.59,85.78 2368.50,119.00
             2369.30,122.37 2370.10,127.56 2369.91,131.00
             2369.70,134.66 2368.41,141.60 2367.07,145.00
             2354.57,176.80 2317.65,162.31 2294.00,175.31
             2277.57,184.34 2275.00,204.05 2275.00,221.00
             2293.03,221.00 2324.79,219.08 2340.00,228.47
             2362.62,242.43 2361.37,282.13 2338.00,294.68
             2322.25,303.13 2293.10,301.00 2275.00,301.00
             2275.00,301.00 2275.00,474.00 2275.00,474.00
             2274.94,512.81 2234.28,526.96 2202.00,517.28
             2189.81,513.62 2178.19,506.70 2172.38,495.00
             2169.20,488.61 2168.01,481.06 2168.00,474.00
             2168.00,474.00 2168.00,301.00 2168.00,301.00
             2152.06,301.00 2132.02,302.19 2118.00,293.53
             2097.70,281.00 2096.61,243.67 2116.00,229.79
             2128.97,220.50 2152.49,221.00 2168.00,221.00 Z
           M 731.00,221.00
           C 731.00,201.28 728.14,169.50 739.10,153.00
             750.79,135.40 771.20,130.50 791.00,131.91
             799.55,132.52 806.17,133.37 814.00,137.37
             821.70,141.31 828.94,148.42 833.10,156.00
             841.63,171.58 839.00,202.77 839.00,221.00
             856.43,221.00 886.00,218.67 901.00,226.27
             916.59,234.18 921.11,249.67 919.15,266.00
             917.81,277.21 914.89,285.30 905.00,291.90
             888.32,303.01 858.83,300.00 839.00,300.00
             839.00,300.00 839.00,412.00 839.00,412.00
             839.01,416.52 838.98,419.63 840.55,424.00
             842.02,428.13 844.00,430.86 847.04,433.98
             849.75,436.77 852.42,439.05 856.00,440.64
             866.38,445.24 889.39,441.74 904.00,449.40
             918.07,456.78 920.16,468.66 920.00,483.00
             919.66,511.48 891.81,519.96 868.00,520.00
             850.45,520.03 830.12,518.27 813.00,514.35
             803.03,512.06 789.85,507.61 781.00,502.57
             773.59,498.35 767.13,493.97 761.00,487.99
             728.95,456.72 731.00,418.17 731.00,377.00
             731.00,377.00 731.00,300.00 731.00,300.00
             714.26,300.00 694.49,301.86 680.00,291.78
             660.09,277.92 661.33,240.28 682.00,227.76
             696.20,219.16 715.00,221.00 731.00,221.00 Z
           M 2424.00,221.00
           C 2424.00,221.00 2424.00,180.00 2424.00,180.00
             2424.03,174.41 2424.83,169.36 2426.44,164.00
             2434.12,138.36 2459.98,130.19 2484.00,131.91
             2495.23,132.72 2505.03,134.92 2514.00,142.33
             2527.95,153.85 2531.97,169.63 2532.00,187.00
             2532.00,187.00 2532.00,221.00 2532.00,221.00
             2549.77,221.00 2579.73,218.46 2595.00,226.90
             2617.92,239.57 2618.00,279.37 2596.00,292.93
             2580.17,302.69 2550.66,300.00 2532.00,300.00
             2532.00,300.00 2532.00,414.00 2532.00,414.00
             2532.01,417.69 2531.88,420.42 2533.11,424.00
             2545.33,459.63 2594.86,428.38 2610.12,464.00
             2611.75,467.80 2612.79,473.85 2612.96,478.00
             2614.28,509.48 2588.04,519.96 2561.00,520.00
             2542.24,520.03 2523.34,518.29 2505.00,514.21
             2493.77,511.71 2484.21,508.02 2474.00,502.74
             2467.21,499.23 2459.75,493.77 2454.00,488.71
             2433.86,470.98 2424.04,439.26 2424.00,413.00
             2424.00,413.00 2424.00,377.00 2424.00,377.00
             2424.00,377.00 2424.00,300.00 2424.00,300.00
             2407.21,300.00 2386.23,301.90 2372.00,291.39
             2359.60,282.23 2358.84,270.02 2359.00,256.00
             2359.14,244.16 2364.63,233.50 2375.00,227.35
             2388.79,219.17 2408.42,221.00 2424.00,221.00 Z
           M 552.00,477.00
           C 552.00,477.00 539.70,495.00 539.70,495.00
             530.52,505.67 516.50,513.51 503.00,517.26
             496.53,519.05 483.68,520.92 477.00,521.00
             438.00,521.44 397.08,503.64 378.32,468.00
             374.11,460.01 370.07,447.01 369.00,438.00
             369.00,438.00 369.00,430.00 369.00,430.00
             367.98,420.56 369.20,408.18 371.74,399.00
             378.94,373.05 398.54,358.81 423.00,350.34
             459.58,337.69 502.70,338.08 541.00,338.00
             543.54,337.99 547.48,338.32 549.40,336.40
             551.38,334.42 551.01,330.54 550.72,328.00
             549.87,320.74 549.55,314.71 546.19,308.00
             539.44,294.52 526.01,291.02 512.00,291.00
             489.58,290.97 471.20,296.44 450.00,303.02
             438.75,306.52 426.89,311.86 415.00,312.00
             411.99,312.03 407.88,312.13 405.00,311.47
             388.90,307.78 381.18,291.27 381.00,276.00
             380.92,268.99 380.86,262.69 383.47,256.00
             389.37,240.82 406.72,233.29 421.00,228.05
             451.75,216.78 490.33,211.62 523.00,212.00
             523.00,212.00 543.00,213.85 543.00,213.85
             580.75,218.36 615.27,231.26 635.13,266.00
             645.34,283.86 651.97,311.44 652.00,332.00
             652.00,332.00 653.00,353.00 653.00,353.00
             653.00,353.00 653.00,443.00 653.00,443.00
             653.00,458.12 654.15,480.29 648.12,494.00
             639.36,513.93 619.10,520.23 599.00,520.00
             574.17,519.71 552.24,503.09 552.00,477.00 Z
           M 1115.00,338.00
           C 1115.00,338.00 1115.00,328.00 1115.00,328.00
             1114.99,322.28 1114.67,318.54 1112.96,313.00
             1103.61,282.72 1062.05,290.36 1039.00,296.13
             1039.00,296.13 1024.00,300.14 1024.00,300.14
             1024.00,300.14 1006.00,306.00 1006.00,306.00
             997.73,308.76 988.77,311.89 980.00,312.00
             972.38,312.08 966.53,311.82 960.00,307.20
             945.25,296.77 941.39,268.39 949.40,253.00
             956.40,239.56 972.50,233.00 986.00,228.05
             997.11,223.98 1008.49,221.25 1020.00,218.65
             1054.63,210.82 1091.21,209.73 1126.00,216.80
             1147.90,221.25 1171.54,231.21 1186.83,248.00
             1197.48,259.70 1205.77,275.87 1210.28,291.00
             1213.74,302.59 1216.98,323.95 1217.00,336.00
             1217.00,336.00 1217.00,473.00 1217.00,473.00
             1216.99,478.79 1216.68,482.39 1214.96,488.00
             1207.51,512.41 1186.48,520.27 1163.00,520.00
             1146.37,519.80 1130.16,511.87 1121.90,497.00
             1117.51,489.10 1118.02,484.21 1115.00,477.00
             1113.25,483.13 1109.91,488.09 1105.91,493.00
             1089.89,512.67 1063.79,521.28 1039.00,521.00
             1010.50,520.67 976.61,509.50 957.17,488.00
             950.22,480.31 943.35,469.63 939.45,460.00
             928.55,433.09 930.80,395.52 950.30,373.00
             955.26,367.28 962.46,362.40 969.00,358.62
             984.40,349.70 1006.42,344.60 1024.00,342.13
             1056.55,337.56 1082.51,338.00 1115.00,338.00 Z
           M 1988.00,338.00
           C 1988.00,338.00 1988.00,328.00 1988.00,328.00
             1987.96,304.61 1975.75,291.28 1952.00,291.00
             1929.68,290.74 1912.13,295.46 1891.00,302.02
             1876.15,306.64 1864.97,312.19 1849.00,312.00
             1828.92,311.76 1819.03,294.24 1819.00,276.00
             1819.00,276.00 1819.00,268.00 1819.00,268.00
             1819.10,259.79 1821.80,252.27 1827.32,246.09
             1838.96,233.08 1868.97,223.89 1886.00,220.21
             1886.00,220.21 1918.00,214.42 1918.00,214.42
             1969.17,207.36 2040.62,213.53 2070.54,262.00
             2082.75,281.77 2089.96,310.79 2090.00,334.00
             2090.00,334.00 2090.00,365.00 2090.00,365.00
             2090.00,365.00 2090.00,474.00 2090.00,474.00
             2089.98,485.52 2086.77,496.32 2078.82,504.96
             2062.83,522.33 2029.61,524.70 2010.00,512.53
             2003.00,508.19 1996.24,500.66 1993.09,493.00
             1993.09,493.00 1988.00,477.00 1988.00,477.00
             1986.48,482.30 1984.42,485.52 1981.28,490.00
             1966.02,511.80 1937.78,521.29 1912.00,521.00
             1884.28,520.68 1850.28,509.70 1831.17,488.99
             1812.07,468.28 1803.86,442.84 1806.84,415.00
             1809.59,389.21 1819.08,370.63 1843.00,358.26
             1861.00,348.95 1877.07,344.93 1897.00,342.13
             1897.00,342.13 1932.00,338.91 1932.00,338.91
             1932.00,338.91 1944.00,338.00 1944.00,338.00
             1944.00,338.00 1988.00,338.00 1988.00,338.00 Z
           M 1405.00,214.67
           C 1414.07,213.32 1422.97,214.28 1432.00,214.67
             1453.66,216.43 1476.40,221.12 1496.00,230.76
             1504.76,235.06 1515.89,240.46 1522.10,248.09
             1539.65,269.65 1530.58,318.82 1497.00,316.91
             1471.97,315.48 1452.77,296.20 1426.00,295.04
             1419.99,294.78 1412.86,295.55 1407.00,296.89
             1402.07,298.01 1397.38,299.50 1393.00,302.09
             1364.97,318.71 1364.67,349.29 1365.00,378.00
             1365.20,394.92 1372.83,417.46 1386.01,428.54
             1404.00,443.64 1428.97,444.13 1450.00,435.80
             1464.78,429.94 1479.66,420.19 1496.00,420.00
             1500.71,419.95 1504.51,419.74 1509.00,421.47
             1525.16,427.68 1530.18,447.39 1530.00,463.00
             1529.87,473.49 1525.92,485.63 1517.96,492.79
             1513.31,496.98 1503.82,501.34 1498.00,504.25
             1467.73,519.34 1435.27,522.39 1402.00,522.00
             1402.00,522.00 1392.00,521.08 1392.00,521.08
             1354.99,518.12 1317.39,502.92 1292.17,475.00
             1270.22,450.70 1259.25,421.30 1256.04,389.00
             1256.04,389.00 1256.04,380.00 1256.04,380.00
             1256.04,380.00 1255.04,372.00 1255.04,372.00
             1254.76,365.50 1255.52,363.71 1255.91,358.00
             1258.04,326.83 1264.10,303.23 1282.03,277.00
             1301.81,248.06 1333.23,228.37 1367.00,219.89
             1367.00,219.89 1394.00,215.17 1394.00,215.17
             1394.00,215.17 1405.00,214.67 1405.00,214.67 Z
           M 1671.00,271.00
           C 1672.46,263.21 1678.16,254.20 1683.01,248.00
             1703.46,221.91 1734.50,214.62 1766.00,215.00
             1789.32,215.29 1801.78,237.86 1800.96,259.00
             1800.75,264.56 1799.16,274.80 1797.30,280.00
             1790.60,298.74 1772.39,302.42 1755.00,305.25
             1755.00,305.25 1734.00,307.17 1734.00,307.17
             1715.27,308.97 1696.95,314.85 1685.77,331.00
             1683.16,334.77 1680.79,339.64 1679.36,344.00
             1677.14,350.72 1676.01,358.94 1676.00,366.00
             1676.00,366.00 1676.00,454.00 1676.00,454.00
             1676.00,470.19 1677.52,487.22 1667.24,501.00
             1648.96,525.51 1599.51,525.98 1579.18,503.96
             1570.54,494.60 1568.02,481.34 1568.00,469.00
             1568.00,469.00 1568.00,265.00 1568.00,265.00
             1568.02,252.66 1570.88,240.47 1579.30,231.04
             1595.84,212.51 1632.05,209.50 1652.00,223.79
             1662.15,231.05 1668.11,241.72 1669.71,254.00
             1670.53,260.26 1669.18,264.60 1671.00,271.00 Z
           M 153.00,294.29
           C 116.16,300.41 105.04,332.79 105.00,366.00
             104.99,375.06 106.62,389.29 109.01,398.00
             115.48,421.59 132.03,440.69 158.00,441.00
             174.60,441.19 187.80,440.21 200.83,428.38
             218.39,412.45 222.26,385.52 222.00,363.00
             221.91,355.27 219.72,340.34 217.33,333.00
             213.87,322.40 208.72,312.57 200.00,305.33
             186.78,294.36 169.46,292.73 153.00,294.29 Z
           M 551.00,388.00
           C 551.00,388.00 530.00,388.00 530.00,388.00
             523.27,388.01 508.67,389.52 502.00,390.80
             495.24,392.11 486.60,394.57 481.00,398.63
             467.10,408.72 469.95,433.61 483.01,443.21
             495.53,452.41 515.34,450.19 528.00,442.38
             534.31,438.49 540.12,432.37 543.91,426.00
             548.33,418.56 550.90,408.64 551.00,400.00
             551.00,400.00 551.00,388.00 551.00,388.00 Z
           M 1116.00,388.00
           C 1116.00,388.00 1095.00,388.00 1095.00,388.00
             1088.63,388.01 1072.12,389.50 1066.00,390.89
             1057.44,392.83 1048.28,395.23 1042.21,402.04
             1031.92,413.58 1036.41,434.53 1048.00,443.47
             1062.25,454.46 1086.40,448.74 1098.99,437.70
             1104.70,432.68 1109.74,425.17 1112.30,418.00
             1116.28,406.88 1116.00,399.41 1116.00,388.00 Z
           M 1988.00,388.00
           C 1988.00,388.00 1967.00,388.00 1967.00,388.00
             1960.27,388.01 1945.67,389.52 1939.00,390.80
             1931.86,392.18 1923.94,394.43 1918.01,398.79
             1903.51,409.45 1907.34,434.15 1921.01,443.78
             1932.77,452.06 1952.03,450.09 1964.00,443.12
             1970.65,439.25 1976.92,432.54 1980.93,426.00
             1985.18,419.08 1987.90,409.11 1988.00,401.00
             1988.00,401.00 1988.00,388.00 1988.00,388.00 Z" />
</svg>
